<svg xmlns="http://www.w3.org/2000/svg" width="182.721" height="20.99" viewBox="0 0 182.721 20.99">
  <title id="ftnt-black-logo">Fortinet Black Logo</title>
  <g id="fortinet-logo" transform="translate(0 0.1)">
    <path id="Path_1" data-name="Path 1" d="M0,21.315V.8H22.641v4.57H5.012V8.845H20.194v4.422H5.012v8.048H0Zm75.765,0V14.328a1.027,1.027,0,0,0-.531-.884,5.643,5.643,0,0,0-2-.177H62.912v8.078H57.9V.8H73.525c2.712,0,4.57.413,5.837,1.651,1.268,1.3,1.415,2.978,1.445,4.717V8.638a4.8,4.8,0,0,1-1.71,3.626l.177.088a1.71,1.71,0,0,1,.59.442,3.724,3.724,0,0,1,.708,2.653v5.867ZM73.053,8.845a6.134,6.134,0,0,0,2.241-.177,1.161,1.161,0,0,0,.531-.884V6.427a1.027,1.027,0,0,0-.531-.884,7.26,7.26,0,0,0-2.624-.177H62.912V8.845H73.053Zm15.094,12.47V5.366H83.43V.8h18.809v4.57h-9.08V21.315H88.147Zm1.3-17.246v0Zm77.888,17.246V5.366h-4.717V.8h18.809v4.57h-9.08V21.315h-5.012ZM168.6,4.069v0ZM104.715,21.315V.8h5.012V21.315Zm35.2,0V.8h20.194v4.57H144.927V8.845h10.554v4.422H144.927v3.479h15.3v4.57H139.915Zm-21.4,0h-5.041V.8h16.185a7.184,7.184,0,0,1,4.835,1.739s1.916,1.621,1.916,5.542V21.315H131.4V7.754s.059-1.386-.413-1.857a1.588,1.588,0,0,0-1.209-.531H118.512Zm61.733-.029a2.476,2.476,0,1,1,2.476-2.476A2.472,2.472,0,0,1,180.245,21.285Zm0-4.658a2.2,2.2,0,1,0,2.182,2.211,2.183,2.183,0,0,0-2.182-2.211Zm-.914.737h1.209c.413,0,.825.088.884.708a.7.7,0,0,1-.354.678c.295.177.295.236.324.708.029.354-.029.413.118.649H181.1l-.059-.354c-.059-.324.088-.825-.472-.825h-.884v1.179h-.354V17.365Zm.354.324v.943h.884c.236,0,.472-.059.5-.413.059-.472-.295-.531-.5-.531Z" transform="translate(0 -0.631)" fill="#231f20"/>
    <path id="Path_2" data-name="Path 2" d="M84.3,7.683h8.314v5.454H84.3ZM94.913-.071h8.166V5.383H94.913Zm0,15.477h8.166v5.454H94.913Zm10.436-7.724h8.343v5.454h-8.343ZM87.72-.071c-1.739.442-3.1,2.388-3.42,4.864v.619h8.314V-.071ZM84.3,15.407v.678c.295,2.358,1.562,4.245,3.213,4.776h5.13V15.407ZM113.692,5.383V4.764c-.324-2.447-1.68-4.393-3.42-4.864h-4.923V5.354h8.343ZM110.479,20.89c1.621-.56,2.889-2.417,3.213-4.776v-.678h-8.343V20.89h5.13Z" transform="translate(-59.448)" fill="#ee3124"/>
  </g>
</svg>
